<svg width="238" height="54" viewBox="0 0 238 54" fill="none" xmlns="http://www.w3.org/2000/svg">
<path d="M10.8474 25.324C10.8474 25.996 10.6854 26.626 10.3614 27.214C10.0494 27.802 9.55136 28.276 8.86736 28.636C8.19536 28.996 7.34336 29.176 6.31136 29.176H4.20536V34H1.68536V21.436H6.31136C7.28336 21.436 8.11136 21.604 8.79536 21.94C9.47936 22.276 9.98936 22.738 10.3254 23.326C10.6734 23.914 10.8474 24.58 10.8474 25.324ZM6.20336 27.142C6.89936 27.142 7.41536 26.986 7.75136 26.674C8.08736 26.35 8.25536 25.9 8.25536 25.324C8.25536 24.1 7.57136 23.488 6.20336 23.488H4.20536V27.142H6.20336ZM15.1565 25.576C15.4805 25.048 15.9005 24.634 16.4165 24.334C16.9445 24.034 17.5445 23.884 18.2165 23.884V26.53H17.5505C16.7585 26.53 16.1585 26.716 15.7505 27.088C15.3545 27.46 15.1565 28.108 15.1565 29.032V34H12.6365V24.028H15.1565V25.576ZM29.1839 28.798C29.1839 29.158 29.1599 29.482 29.1119 29.77H21.8219C21.8819 30.49 22.1339 31.054 22.5779 31.462C23.0219 31.87 23.5679 32.074 24.2159 32.074C25.1519 32.074 25.8179 31.672 26.2139 30.868H28.9319C28.6439 31.828 28.0919 32.62 27.2759 33.244C26.4599 33.856 25.4579 34.162 24.2699 34.162C23.3099 34.162 22.4459 33.952 21.6779 33.532C20.9219 33.1 20.3279 32.494 19.8959 31.714C19.4759 30.934 19.2659 30.034 19.2659 29.014C19.2659 27.982 19.4759 27.076 19.8959 26.296C20.3159 25.516 20.9039 24.916 21.6599 24.496C22.4159 24.076 23.2859 23.866 24.2699 23.866C25.2179 23.866 26.0639 24.07 26.8079 24.478C27.5639 24.886 28.1459 25.468 28.5539 26.224C28.9739 26.968 29.1839 27.826 29.1839 28.798ZM26.5739 28.078C26.5619 27.43 26.3279 26.914 25.8719 26.53C25.4159 26.134 24.8579 25.936 24.1979 25.936C23.5739 25.936 23.0459 26.128 22.6139 26.512C22.1939 26.884 21.9359 27.406 21.8399 28.078H26.5739ZM35.1813 31.678L37.7013 24.028H40.3833L36.6933 34H33.6333L29.9613 24.028H32.6613L35.1813 31.678Z" fill="#EAEAEA"/>
<circle cx="98" cy="27" r="26.5" stroke="#ECECEC"/>
<path d="M95.8873 23.2V20.878H100.225V34H97.6333V23.2H95.8873Z" fill="#4B5264"/>
<path d="M157.078 30.656C158.23 29.696 159.148 28.898 159.832 28.262C160.516 27.614 161.086 26.942 161.542 26.246C161.998 25.55 162.226 24.866 162.226 24.194C162.226 23.582 162.082 23.102 161.794 22.754C161.506 22.406 161.062 22.232 160.462 22.232C159.862 22.232 159.4 22.436 159.076 22.844C158.752 23.24 158.584 23.786 158.572 24.482H156.124C156.172 23.042 156.598 21.95 157.402 21.206C158.218 20.462 159.25 20.09 160.498 20.09C161.866 20.09 162.916 20.456 163.648 21.188C164.38 21.908 164.746 22.862 164.746 24.05C164.746 24.986 164.494 25.88 163.99 26.732C163.486 27.584 162.91 28.328 162.262 28.964C161.614 29.588 160.768 30.344 159.724 31.232H165.034V33.32H156.142V31.448L157.078 30.656Z" fill="#4B5264"/>
<path d="M208.466 33H205.946L200.24 24.378V33H197.72V20.418H200.24L205.946 29.058V20.418H208.466V33ZM220.226 27.798C220.226 28.158 220.202 28.482 220.154 28.77H212.864C212.924 29.49 213.176 30.054 213.62 30.462C214.064 30.87 214.61 31.074 215.258 31.074C216.194 31.074 216.86 30.672 217.256 29.868H219.974C219.686 30.828 219.134 31.62 218.318 32.244C217.502 32.856 216.5 33.162 215.312 33.162C214.352 33.162 213.488 32.952 212.72 32.532C211.964 32.1 211.37 31.494 210.938 30.714C210.518 29.934 210.308 29.034 210.308 28.014C210.308 26.982 210.518 26.076 210.938 25.296C211.358 24.516 211.946 23.916 212.702 23.496C213.458 23.076 214.328 22.866 215.312 22.866C216.26 22.866 217.106 23.07 217.85 23.478C218.606 23.886 219.188 24.468 219.596 25.224C220.016 25.968 220.226 26.826 220.226 27.798ZM217.616 27.078C217.604 26.43 217.37 25.914 216.914 25.53C216.458 25.134 215.9 24.936 215.24 24.936C214.616 24.936 214.088 25.128 213.656 25.512C213.236 25.884 212.978 26.406 212.882 27.078H217.616ZM227.573 33L225.521 29.904L223.703 33H221.003L224.261 27.996L220.967 23.028H223.811L225.845 26.106L227.681 23.028H230.381L227.105 27.996L230.417 33H227.573ZM234.72 25.098V29.922C234.72 30.258 234.798 30.504 234.954 30.66C235.122 30.804 235.398 30.876 235.782 30.876H236.952V33H235.368C233.244 33 232.182 31.968 232.182 29.904V25.098H230.994V23.028H232.182V20.562H234.72V23.028H236.952V25.098H234.72Z" fill="#4B5264"/>
</svg>
